<svg width="1440" height="884" viewBox="0 0 1440 884" fill="none" xmlns="http://www.w3.org/2000/svg">
<g opacity="0.4">
<path d="M6.00727 467.766C299.283 456.041 417.703 386.095 471.142 322.911C530.779 252.393 536.195 158.699 577.826 164.365C604.483 167.991 626.905 209.776 665.7 298.493C783.346 567.517 771.191 626.89 843.1 663.176C943.829 714.023 1037.29 632.598 1200.58 680.328C1320.52 715.387 1402.49 797.991 1454.41 865.596" stroke="#FCD9E0" stroke-width="1.14818" stroke-miterlimit="10"/>
<path d="M1.96339 457.264C287.141 445.295 410.094 379.488 464.908 321.587C526.163 256.879 530.506 167.805 571.296 174.879C597.52 179.425 619.505 220.48 656.983 306.16C770.89 566.51 759.854 626.976 831.384 662.352C933.03 712.298 1025.63 622.864 1191.66 667.472C1195.28 668.445 1198.84 669.434 1202.38 670.487C1319.3 705.319 1402.65 788.336 1456.07 856.028" stroke="#FCD9E0" stroke-width="1.14818" stroke-miterlimit="10"/>
<path d="M-2.05809 446.768C274.999 434.558 402.366 373.026 458.692 320.273C521.473 261.47 524.845 176.929 564.783 185.403C590.582 190.873 612.133 231.203 648.278 313.839C758.414 565.495 748.411 627.234 819.699 661.538C922.094 710.811 1014.05 613.095 1182.78 654.623C1186.48 655.533 1190.17 656.44 1193.83 657.471C1313.16 691.127 1401.33 776.719 1457.74 846.463" stroke="#FCD9E0" stroke-width="1.14818" stroke-miterlimit="10"/>
<path d="M-6.09555 436.267C262.884 423.802 394.443 366.718 452.464 318.955C516.619 266.14 519.186 186.063 558.253 195.925C583.636 202.331 604.721 241.911 639.563 321.512C745.939 564.503 737.033 627.396 808.001 660.719C911.237 709.192 1002.49 603.283 1173.88 641.77C1177.68 642.623 1181.48 643.484 1185.24 644.444C1307.34 675.657 1399.98 765.09 1459.39 836.883" stroke="#FCD9E0" stroke-width="1.14818" stroke-miterlimit="10"/>
<path d="M-10.1304 425.766C250.749 413.066 386.286 360.563 446.234 317.637C511.547 270.871 513.542 195.212 551.73 206.449C576.701 213.794 597.328 252.628 630.853 329.189C733.47 563.501 725.664 627.553 796.308 659.898C900.419 707.569 990.957 593.431 1164.98 628.907C1168.89 629.709 1172.8 630.512 1176.69 631.419C1301.36 660.858 1398.66 753.464 1461.08 827.321" stroke="#FCD9E0" stroke-width="1.14818" stroke-miterlimit="10"/>
<path d="M-14.1653 415.266C238.618 402.328 377.836 354.562 440.015 316.325C506.18 275.635 507.896 204.369 545.216 216.973C569.779 225.27 589.939 263.343 622.147 336.867C721.013 562.502 714.314 627.703 784.621 659.083C889.604 705.937 979.451 583.541 1156.09 616.065C1160.11 616.803 1164.12 617.536 1168.13 618.408C1295.36 646.093 1397.35 741.856 1462.75 817.763" stroke="#FCD9E0" stroke-width="1.14818" stroke-miterlimit="10"/>
<path d="M-18.196 404.767C226.486 391.582 369.02 348.692 433.782 315.006C500.409 280.348 502.271 213.546 538.685 227.494C562.848 236.748 582.535 274.065 613.426 344.538C708.537 561.495 702.958 627.843 772.919 658.26C878.8 704.295 967.944 573.61 1147.19 603.21C1151.32 603.893 1155.43 604.56 1159.55 605.384C1289.33 631.328 1396.01 730.236 1464.4 808.191" stroke="#FCD9E0" stroke-width="1.14818" stroke-miterlimit="10"/>
<path d="M-22.231 394.267C214.353 380.838 350.024 331.884 427.556 313.69C482.165 275.163 496.637 222.736 532.162 238.016C555.922 248.238 575.144 284.772 604.712 352.229C696.064 560.507 691.609 627.988 761.221 657.456C867.999 702.656 956.447 563.657 1138.28 590.37C1142.51 590.992 1146.75 591.602 1150.99 592.378C1283.31 616.607 1394.7 718.629 1466.08 798.64" stroke="#FCD9E0" stroke-width="1.14818" stroke-miterlimit="10"/>
<path d="M-26.2659 383.767C202.224 370.096 340.36 324.136 421.33 312.373C475.221 278.417 491 231.938 525.639 248.54C548.998 259.736 567.748 295.479 596.002 359.892C683.578 559.486 680.278 628.101 749.534 656.626C857.218 700.978 944.963 553.642 1129.39 577.505C1133.72 578.064 1138.07 578.613 1142.43 579.343C1277.29 601.876 1393.36 706.992 1467.75 789.059" stroke="#FCD9E0" stroke-width="1.14818" stroke-miterlimit="10"/>
<path d="M-30.3014 373.267C190.091 359.352 330.69 316.393 415.1 311.055C468.274 281.667 485.36 241.151 519.116 259.062C542.069 271.238 560.354 306.196 587.289 367.565C671.127 558.498 668.951 628.215 737.84 655.803C846.445 699.3 933.471 543.605 1120.5 564.647C1124.93 565.147 1129.38 565.639 1133.86 566.319C1271.27 587.169 1392.03 695.367 1469.41 779.488" stroke="#FCD9E0" stroke-width="1.14818" stroke-miterlimit="10"/>
<path d="M-34.3336 362.767C177.965 348.61 321.024 308.648 408.872 309.741C461.328 284.922 479.711 250.378 512.587 269.584C535.13 282.751 552.958 316.915 578.58 375.234C658.661 557.48 657.63 628.317 726.146 654.98C835.677 697.604 921.98 533.534 1111.6 551.789C1116.14 552.226 1120.7 552.664 1125.3 553.291C1265.25 572.477 1390.7 683.741 1471.08 769.915" stroke="#FCD9E0" stroke-width="1.14818" stroke-miterlimit="10"/>
<path d="M-38.3683 352.264C165.822 337.866 311.367 300.905 402.646 308.435C454.385 288.188 474.054 259.62 506.057 280.117C528.18 294.282 545.558 327.638 569.856 382.927C646.182 556.495 646.303 628.43 714.45 654.179C824.918 695.921 910.476 523.465 1102.7 538.955C1107.35 539.331 1112 539.706 1116.72 540.299C1259.22 557.831 1389.37 672.145 1472.74 760.373" stroke="#FCD9E0" stroke-width="1.14818" stroke-miterlimit="10"/>
<path d="M-42.4027 341.764C153.694 327.124 301.688 293.156 396.42 307.107C447.441 291.43 468.38 268.849 499.542 290.63C521.236 305.794 538.168 338.344 561.15 390.595C633.736 555.489 634.999 628.511 702.755 653.35C814.165 694.189 898.966 513.327 1093.8 526.092C1098.55 526.402 1103.33 526.731 1108.18 527.263C1253.21 543.167 1388.06 660.5 1474.42 750.793" stroke="#FCD9E0" stroke-width="1.14818" stroke-miterlimit="10"/>
<path d="M-46.4252 331.268C141.561 316.38 292.019 285.413 390.193 305.796C440.492 294.688 462.693 278.092 493.019 301.154C514.278 317.322 530.775 349.059 552.441 398.269C621.255 554.484 623.688 628.599 691.06 652.532C803.425 692.458 887.448 503.169 1084.9 513.239C1089.76 513.486 1094.65 513.759 1099.6 514.238C1247.19 528.511 1386.72 648.885 1476.1 741.229" stroke="#FCD9E0" stroke-width="1.14818" stroke-miterlimit="10"/>
<path d="M-50.4689 320.765C129.427 305.636 282.353 277.668 383.967 304.477C433.549 297.939 456.997 287.335 486.494 311.683C507.305 328.855 523.38 359.778 543.709 405.946C608.768 553.482 612.365 628.663 679.348 651.712C792.668 690.708 875.894 493.018 1075.99 500.385C1080.95 500.569 1085.95 500.791 1091.01 501.217C1241.16 513.878 1385.37 637.266 1477.73 731.656" stroke="#FCD9E0" stroke-width="1.14818" stroke-miterlimit="10"/>
<path d="M-54.5032 310.265C117.295 294.892 272.686 269.922 377.738 303.159C426.606 301.192 451.284 296.578 479.973 322.199C500.327 340.377 515.984 370.488 535.017 413.622C596.318 552.477 601.08 628.723 667.676 650.895C781.955 688.941 864.37 482.821 1067.11 487.545C1072.17 487.664 1077.28 487.834 1082.48 488.216C1235.18 499.255 1384.06 625.642 1479.42 722.076" stroke="#FCD9E0" stroke-width="1.14818" stroke-miterlimit="10"/>
<path d="M-58.5387 299.765C105.165 284.152 263.014 262.187 371.512 301.842C419.64 304.432 445.557 305.824 473.449 332.724C493.334 351.905 508.59 381.202 526.305 421.288C583.851 551.465 589.781 628.766 655.984 650.064C771.229 687.143 852.812 472.602 1058.22 474.669C1063.39 474.721 1068.6 474.842 1073.9 475.165C1229.18 484.644 1382.74 614.026 1481.08 712.52" stroke="#FCD9E0" stroke-width="1.14818" stroke-miterlimit="10"/>
<path d="M-62.5707 289.254C93.0346 273.398 253.35 254.423 365.284 300.517C412.713 307.687 439.822 315.053 466.922 343.232C486.341 363.406 501.196 391.904 517.588 428.961C571.379 550.456 578.478 628.807 644.285 649.245C760.501 685.35 841.237 462.385 1049.32 461.833C1054.59 461.816 1059.92 461.889 1065.33 462.159C1223.19 470.046 1381.4 602.406 1482.75 702.965" stroke="#FCD9E0" stroke-width="1.14818" stroke-miterlimit="10"/>
<path d="M-66.6042 278.757C80.8938 262.675 232.948 279.374 359.057 299.211C406.247 306.633 434.074 324.304 460.398 353.767C479.335 374.943 493.802 402.632 508.877 436.649C558.908 549.471 567.177 628.852 632.59 648.438C749.776 683.526 829.651 452.14 1040.42 448.972C1045.79 448.892 1051.24 448.916 1056.77 449.132C1217.2 455.445 1380.06 590.777 1484.42 693.384" stroke="#FCD9E0" stroke-width="1.14818" stroke-miterlimit="10"/>
<path d="M-70.6404 268.259C68.7768 251.918 229.183 245.597 352.832 297.889C397.437 316.754 428.317 333.533 453.876 364.286C472.322 386.462 486.406 413.339 500.164 444.32C546.444 548.465 555.877 628.868 620.897 647.613C739.051 681.677 818.049 441.876 1031.52 436.113C1037 435.967 1042.56 435.95 1048.2 436.108C1211.28 441.087 1378.74 579.158 1486.1 683.82" stroke="#FCD9E0" stroke-width="1.14818" stroke-miterlimit="10"/>
<path d="M-74.6755 257.762C56.6356 241.175 221.545 234.392 346.606 296.575C390.967 318.633 422.551 342.767 447.353 374.81C465.302 397.984 479.012 424.059 491.451 451.996C533.974 547.465 544.526 629.069 609.202 646.798C728.42 679.476 806.345 431.382 1022.62 423.263C1028.2 423.042 1033.87 422.984 1039.63 423.088C1205.28 426.397 1377.42 567.535 1487.75 674.246" stroke="#FCD9E0" stroke-width="1.14818" stroke-miterlimit="10"/>
<path d="M-78.7116 247.264C44.5007 230.436 214.673 223.458 340.375 295.262C529.868 403.514 489.43 617.229 597.511 645.981C720.718 678.757 798.779 407.806 1031.07 410.069C1199.28 411.708 1376.1 555.92 1489.42 664.683" stroke="#FCD9E0" stroke-width="1.14818" stroke-miterlimit="10"/>
</g>
</svg>
