<svg width="1440" height="624" viewBox="0 0 1440 624" fill="none" xmlns="http://www.w3.org/2000/svg">
<path d="M-197 29.8689C66.269 113.244 208.18 223.206 290.025 313.163C358.252 388.16 357.041 418.839 429.487 474.793C586.703 596.211 887.866 679.94 1033.83 575.598C1105.73 524.199 1079.13 459.062 1113.52 335.755C1144.46 224.831 1224.45 72.2721 1447.79 -93.5281" stroke="#F9C0CC" stroke-width="1.28375" stroke-miterlimit="10"/>
<path d="M-196.473 56.769C59.5997 128.424 200.092 231.871 281.894 316.059C350.723 386.916 356.32 415.251 433.271 470.243C594.696 585.605 877.527 665.92 1023.69 568.562C1098.98 518.419 1081.85 454.396 1122.15 331.45C1157.63 223.21 1239.25 73.26 1458.74 -91.0532" stroke="#F9C0CC" stroke-width="1.28375" stroke-miterlimit="10"/>
<path d="M-195.947 83.665C52.9251 143.603 192.107 240.562 273.776 318.955C343.351 385.738 355.474 411.665 437.068 465.692C602.348 575.133 867.639 652.086 1013.58 561.53C1092.42 512.605 1084.47 449.794 1130.8 327.15C1170.67 221.619 1254.07 74.2587 1469.72 -88.5601" stroke="#F9C0CC" stroke-width="1.28375" stroke-miterlimit="10"/>
<path d="M-195.42 110.564C46.251 158.785 184.26 249.278 265.659 321.872C336.069 384.63 354.492 408.105 440.884 461.137C609.691 564.808 858.178 638.461 1003.48 554.493C1086.04 506.79 1086.97 445.243 1139.46 322.844C1183.55 220.049 1268.91 75.2566 1480.69 -86.0789" stroke="#F9C0CC" stroke-width="1.28375" stroke-miterlimit="10"/>
<path d="M-194.892 137.46C39.6021 173.957 176.577 257.995 257.544 324.749C328.912 383.584 353.43 404.58 444.654 456.587C616.694 554.638 849.061 625.06 993.337 547.457C1079.78 500.966 1089.28 440.722 1148.08 318.54C1196.24 218.488 1283.71 76.252 1491.63 -83.5779" stroke="#F9C0CC" stroke-width="1.28375" stroke-miterlimit="10"/>
<path d="M-194.364 164.357C32.9095 189.136 169.068 266.716 249.427 327.645C321.906 382.6 352.196 401.107 448.452 452.033C623.463 544.636 840.318 611.886 983.217 540.425C1073.7 495.174 1091.44 436.224 1156.73 314.236C1208.79 216.923 1298.52 77.251 1502.59 -81.1143" stroke="#F9C0CC" stroke-width="1.28375" stroke-miterlimit="10"/>
<path d="M-193.838 191.253C26.2349 204.297 161.767 275.4 241.309 330.541C315.061 381.668 350.881 397.694 452.245 447.483C630.014 534.798 831.887 598.95 973.096 533.389C1067.76 489.435 1093.5 431.726 1165.37 309.936C1221.19 215.343 1313.35 78.2499 1513.55 -78.6284" stroke="#F9C0CC" stroke-width="1.28375" stroke-miterlimit="10"/>
<path d="M-193.293 218.153C19.5784 219.491 154.711 284.042 233.21 333.436C308.423 380.766 349.507 394.354 456.055 442.933C636.387 525.126 823.759 586.249 962.993 526.353C1061.99 483.767 1095.4 427.221 1174.03 305.631C1233.44 213.744 1328.15 79.2597 1524.52 -76.1465" stroke="#F9C0CC" stroke-width="1.28375" stroke-miterlimit="10"/>
<path d="M-192.785 245.049C12.8858 234.67 147.867 292.602 225.074 336.336C301.973 379.88 347.979 391.12 459.834 438.379C642.587 515.62 815.846 573.787 952.854 519.32C1056.34 478.192 1097.1 422.678 1182.66 301.327C1245.56 212.112 1342.96 80.2438 1535.5 -73.6643" stroke="#F9C0CC" stroke-width="1.28375" stroke-miterlimit="10"/>
<path d="M-192.258 271.933C6.21642 249.837 141.292 301.039 216.957 339.22C295.721 378.962 346.413 387.922 463.626 433.817C648.649 506.258 808.133 561.541 942.734 512.273C1050.8 472.721 1098.66 418.079 1191.3 297.011C1257.56 210.427 1357.78 81.231 1546.44 -71.1938" stroke="#F9C0CC" stroke-width="1.28375" stroke-miterlimit="10"/>
<path d="M-191.73 298.845C-0.432949 265.028 134.975 309.358 208.846 342.127C289.722 378.009 344.79 384.862 467.425 429.274C654.631 497.071 800.6 549.544 932.615 505.252C1045.39 467.414 1100.07 413.439 1199.95 292.718C1269.44 208.72 1372.6 82.2412 1557.41 -68.6929" stroke="#F9C0CC" stroke-width="1.28375" stroke-miterlimit="10"/>
<path d="M-191.204 325.74C-7.1308 280.203 128.899 317.486 200.728 345.023C283.95 376.931 343.133 381.895 471.217 424.723C660.54 488.019 793.205 537.749 922.494 498.215C1040.08 462.263 1101.34 408.713 1208.59 288.417C1281.22 206.95 1387.41 83.236 1568.37 -66.2148" stroke="#F9C0CC" stroke-width="1.28375" stroke-miterlimit="10"/>
<path d="M-190.677 352.64C-13.8054 295.382 123.032 325.405 192.611 347.922C278.396 375.683 341.396 379.03 475.014 420.173C666.402 479.104 785.904 526.162 912.378 491.179C1034.85 457.303 1102.47 403.902 1217.23 284.113C1292.91 205.124 1402.23 84.2349 1579.33 -63.7327" stroke="#F9C0CC" stroke-width="1.28375" stroke-miterlimit="10"/>
<path d="M-190.15 379.537C-20.4747 310.562 117.34 333.094 184.494 350.818C273.036 374.189 339.649 376.272 478.798 415.619C672.222 470.313 778.66 514.751 902.248 484.147C1029.72 452.563 1103.46 398.987 1225.87 279.808C1304.53 203.235 1417.04 85.2227 1590.29 -61.2393" stroke="#F9C0CC" stroke-width="1.28375" stroke-miterlimit="10"/>
<path d="M-189.624 406.433C-27.1493 325.737 111.762 340.532 176.357 353.714C267.8 372.37 337.863 373.619 482.585 411.069C678.036 461.645 771.444 503.56 892.118 477.111C1024.63 448.068 1104.33 393.963 1234.5 275.493C1316.06 201.271 1431.84 86.2178 1601.24 -58.7795" stroke="#F9C0CC" stroke-width="1.28375" stroke-miterlimit="10"/>
<path d="M-189.097 433.333C-33.7997 340.916 106.232 347.718 168.259 356.61C262.673 370.145 336.102 371.073 486.397 406.515C683.865 453.099 764.257 492.525 882.017 470.079C1019.6 443.846 1105.12 388.835 1243.17 271.203C1327.59 199.262 1446.68 87.2277 1612.22 -56.2827" stroke="#F9C0CC" stroke-width="1.28375" stroke-miterlimit="10"/>
<path d="M-188.546 460.228C-40.4736 356.095 101.343 368.132 160.166 359.509C256.379 345.399 334.346 368.635 490.218 401.964C689.728 444.632 757.023 481.653 871.897 463.042C1014.58 439.936 1105.8 383.554 1251.81 266.898C1339.06 197.186 1461.49 88.2261 1623.18 -53.7861" stroke="#F9C0CC" stroke-width="1.28375" stroke-miterlimit="10"/>
<path d="M-188.042 487.125C-47.1649 371.274 96.3415 372.493 152.027 362.405C249.626 344.725 332.544 366.299 493.989 397.414C695.611 436.284 749.705 470.943 861.778 456.006C1009.55 436.336 1106.4 378.161 1260.46 262.587C1350.51 195.032 1476.31 89.214 1634.15 -51.3262" stroke="#F9C0CC" stroke-width="1.28375" stroke-miterlimit="10"/>
<path d="M-187.515 514.024C-53.8395 386.449 90.6827 376.424 143.909 365.3C243.265 344.538 330.773 364.067 497.786 392.878C701.525 428.007 742.295 460.355 851.658 448.992C1004.47 433.112 1106.93 372.653 1269.1 258.308C1361.94 192.848 1491.13 90.2311 1645.11 -48.8184" stroke="#F9C0CC" stroke-width="1.28375" stroke-miterlimit="10"/>
<path d="M-186.988 540.921C-60.5136 401.629 82.6557 374.334 135.797 368.196C240.469 356.133 329.031 361.928 501.583 388.321C707.501 419.801 734.757 449.876 841.542 441.949C999.317 430.225 1107.4 366.966 1277.75 253.986C1373.38 190.556 1505.95 91.2191 1656.08 -46.3545" stroke="#F9C0CC" stroke-width="1.28375" stroke-miterlimit="10"/>
<path d="M-186.462 567.817C-67.1882 416.808 76.0381 380.662 127.674 371.095C233.837 351.429 327.298 359.885 505.37 383.766C713.515 411.669 727.048 439.511 831.416 434.913C994.048 427.75 1107.84 361.197 1286.39 249.692C1384.81 188.227 1520.76 92.2251 1667.04 -43.8616" stroke="#F9C0CC" stroke-width="1.28375" stroke-miterlimit="10"/>
<path d="M-185.936 594.716C-73.858 431.987 68.9696 386.997 119.557 373.991C226.598 346.458 325.598 357.932 509.167 379.209C719.599 403.596 719.158 429.229 821.3 427.873C988.626 425.637 1108.24 355.272 1295.03 245.384C1396.25 185.845 1535.57 93.2127 1678 -41.387" stroke="#F9C0CC" stroke-width="1.28375" stroke-miterlimit="10"/>
</svg>
